<svg xmlns="http://www.w3.org/2000/svg" viewBox="180 35 360 310" width="720" height="400" role="img" aria-label="Clean atom diagram with labelled particles, shells and electrons"><defs><radialGradient id="nucleus" cx="35%" cy="30%"><stop offset="0" stop-color="#f59e0b"/><stop offset="1" stop-color="#b45309"/></radialGradient><linearGradient id="shell" x1="0" x2="1"><stop offset="0" stop-color="#0f766e"/><stop offset="1" stop-color="#6f9fba"/></linearGradient></defs><rect width="720" height="400" fill="#f8fbfd"/><circle cx="360" cy="190" r="58" fill="none" stroke="url(#shell)" stroke-width="3"/><circle cx="360" cy="190" r="100" fill="none" stroke="url(#shell)" stroke-width="3"/><circle cx="360" cy="190" r="142" fill="none" stroke="url(#shell)" stroke-width="3"/><circle cx="360" cy="190" r="48" fill="url(#nucleus)" stroke="#92400e" stroke-width="3"/><text x="327" y="183" fill="#fff" font-family="Arial,sans-serif" font-size="20">p+ 17</text><text x="327" y="208" fill="#fff" font-family="Arial,sans-serif" font-size="20">n0 18</text><circle cx="360.0" cy="127.0" r="12" fill="#183b56"/><text x="352" y="132" fill="#fff" font-family="Arial,sans-serif" font-size="13">e-</text><circle cx="360.0" cy="243.0" r="12" fill="#183b56"/><text x="352" y="248" fill="#fff" font-family="Arial,sans-serif" font-size="13">e-</text><circle cx="360.0" cy="85.0" r="12" fill="#183b56"/><text x="352" y="90" fill="#fff" font-family="Arial,sans-serif" font-size="13">e-</text><circle cx="430.7" cy="114.3" r="12" fill="#183b56"/><text x="422.7" y="119.3" fill="#fff" font-family="Arial,sans-serif" font-size="13">e-</text><circle cx="460.0" cy="190.0" r="12" fill="#183b56"/><text x="452" y="190" fill="#fff" font-family="Arial,sans-serif" font-size="13">e-</text><circle cx="430.7" cy="255.7" r="12" fill="#183b56"/><text x="422.7" y="260.7" fill="#fff" font-family="Arial,sans-serif" font-size="13">e-</text><circle cx="360.0" cy="285.0" r="12" fill="#183b56"/><text x="352" y="290" fill="#fff" font-family="Arial,sans-serif" font-size="13">e-</text><circle cx="289.3" cy="255.7" r="12" fill="#183b56"/><text x="281.3" y="260.7" fill="#fff" font-family="Arial,sans-serif" font-size="13">e-</text><circle cx="260.0" cy="190.0" r="12" fill="#183b56"/><text x="252" y="190" fill="#fff" font-family="Arial,sans-serif" font-size="13">e-</text><circle cx="289.3" cy="114.3" r="12" fill="#183b56"/><text x="281.3" y="119.3" fill="#fff" font-family="Arial,sans-serif" font-size="13">e-</text><circle cx="360.0" cy="43.0" r="12" fill="#183b56"/><text x="352" y="48" fill="#fff" font-family="Arial,sans-serif" font-size="13">e-</text><circle cx="471.0" cy="96.5" r="12" fill="#183b56"/><text x="463" y="101.5" fill="#fff" font-family="Arial,sans-serif" font-size="13">e-</text><circle cx="498.4" cy="216.6" r="12" fill="#183b56"/><text x="490.4" y="221.6" fill="#fff" font-family="Arial,sans-serif" font-size="13">e-</text><circle cx="421.6" cy="312.9" r="12" fill="#183b56"/><text x="413.6" y="317.9" fill="#fff" font-family="Arial,sans-serif" font-size="13">e-</text><circle cx="298.4" cy="312.9" r="12" fill="#183b56"/><text x="290.4" y="317.9" fill="#fff" font-family="Arial,sans-serif" font-size="13">e-</text><circle cx="221.6" cy="216.6" r="12" fill="#183b56"/><text x="213.6" y="221.6" fill="#fff" font-family="Arial,sans-serif" font-size="13">e-</text><circle cx="249.0" cy="96.5" r="12" fill="#183b56"/><text x="241" y="101.5" fill="#fff" font-family="Arial,sans-serif" font-size="13">e-</text></svg>