<svg xmlns="http://www.w3.org/2000/svg" viewBox="140 30 440 350" width="720" height="400" role="img" aria-label="Atom structure with labelled nucleus, shells, electrons and electron configuration"><defs><radialGradient id="nucleus" cx="35%" cy="30%"><stop offset="0" stop-color="#f59e0b"/><stop offset="1" stop-color="#b45309"/></radialGradient><linearGradient id="shell" x1="0" x2="1"><stop offset="0" stop-color="#7c3aed"/><stop offset="1" stop-color="#6f9fba"/></linearGradient></defs><rect width="720" height="400" fill="#f8fbfd"/><text x="190" y="58" fill="#7c3aed" font-family="Arial,sans-serif" font-size="28">Neon</text><circle cx="360" cy="190" r="58" fill="none" stroke="url(#shell)" stroke-width="3"/><circle cx="360" cy="190" r="100" fill="none" stroke="url(#shell)" stroke-width="3"/><circle cx="360" cy="190" r="142" fill="none" stroke="url(#shell)" stroke-width="3"/><circle cx="360" cy="190" r="45" fill="url(#nucleus)" stroke="#92400e" stroke-width="3"/><text x="330" y="183" fill="#fff" font-family="Arial,sans-serif" font-size="17">p+ 10</text><text x="330" y="205" fill="#fff" font-family="Arial,sans-serif" font-size="17">n0 12</text><circle cx="360.0" cy="127.0" r="12" fill="#183b56"/><text x="352" y="132" fill="#fff" font-family="Arial,sans-serif" font-size="13">e-</text><circle cx="360.0" cy="243.0" r="12" fill="#183b56"/><text x="352" y="248" fill="#fff" font-family="Arial,sans-serif" font-size="13">e-</text><circle cx="360.0" cy="85.0" r="12" fill="#183b56"/><text x="352" y="90" fill="#fff" font-family="Arial,sans-serif" font-size="13">e-</text><circle cx="430.7" cy="114.3" r="12" fill="#183b56"/><text x="422.7" y="119.3" fill="#fff" font-family="Arial,sans-serif" font-size="13">e-</text><circle cx="460.0" cy="190.0" r="12" fill="#183b56"/><text x="452" y="190" fill="#fff" font-family="Arial,sans-serif" font-size="13">e-</text><circle cx="430.7" cy="255.7" r="12" fill="#183b56"/><text x="422.7" y="260.7" fill="#fff" font-family="Arial,sans-serif" font-size="13">e-</text><circle cx="360.0" cy="285.0" r="12" fill="#183b56"/><text x="352" y="290" fill="#fff" font-family="Arial,sans-serif" font-size="13">e-</text><circle cx="289.3" cy="255.7" r="12" fill="#183b56"/><text x="281.3" y="260.7" fill="#fff" font-family="Arial,sans-serif" font-size="13">e-</text><circle cx="260.0" cy="190.0" r="12" fill="#183b56"/><text x="252" y="190" fill="#fff" font-family="Arial,sans-serif" font-size="13">e-</text><circle cx="289.3" cy="114.3" r="12" fill="#183b56"/><text x="281.3" y="119.3" fill="#fff" font-family="Arial,sans-serif" font-size="13">e-</text><text x="190" y="350" fill="#183b56" font-family="Arial,sans-serif" font-size="17">Electron configuration: 2 | 8 | 0</text><text x="190" y="378" fill="#52667a" font-family="Arial,sans-serif" font-size="17">Atomic number 10 | Isotope 22</text></svg>