<svg xmlns="http://www.w3.org/2000/svg" viewBox="180 35 360 310" width="720" height="400" role="img" aria-label="Clean atom diagram with labelled particles, shells and electrons"><defs><radialGradient id="nucleus" cx="35%" cy="30%"><stop offset="0" stop-color="#f59e0b"/><stop offset="1" stop-color="#b45309"/></radialGradient><linearGradient id="shell" x1="0" x2="1"><stop offset="0" stop-color="#0f766e"/><stop offset="1" stop-color="#6f9fba"/></linearGradient></defs><rect width="720" height="400" fill="#f8fbfd"/><circle cx="360" cy="190" r="58" fill="none" stroke="url(#shell)" stroke-width="3"/><circle cx="360" cy="190" r="100" fill="none" stroke="url(#shell)" stroke-width="3"/><circle cx="360" cy="190" r="142" fill="none" stroke="url(#shell)" stroke-width="3"/><circle cx="360" cy="190" r="48" fill="url(#nucleus)" stroke="#92400e" stroke-width="3"/><text x="327" y="183" fill="#fff" font-family="Arial,sans-serif" font-size="20">p+ 9</text><text x="327" y="208" fill="#fff" font-family="Arial,sans-serif" font-size="20">n0 7</text><circle cx="360.0" cy="127.0" r="12" fill="#183b56"/><text x="352" y="132" fill="#fff" font-family="Arial,sans-serif" font-size="13">e-</text><circle cx="360.0" cy="243.0" r="12" fill="#183b56"/><text x="352" y="248" fill="#fff" font-family="Arial,sans-serif" font-size="13">e-</text><circle cx="360.0" cy="85.0" r="12" fill="#183b56"/><text x="352" y="90" fill="#fff" font-family="Arial,sans-serif" font-size="13">e-</text><circle cx="438.2" cy="122.7" r="12" fill="#183b56"/><text x="430.2" y="127.7" fill="#fff" font-family="Arial,sans-serif" font-size="13">e-</text><circle cx="457.5" cy="207.3" r="12" fill="#183b56"/><text x="449.5" y="212.3" fill="#fff" font-family="Arial,sans-serif" font-size="13">e-</text><circle cx="403.4" cy="275.1" r="12" fill="#183b56"/><text x="395.4" y="280.1" fill="#fff" font-family="Arial,sans-serif" font-size="13">e-</text><circle cx="316.6" cy="275.1" r="12" fill="#183b56"/><text x="308.6" y="280.1" fill="#fff" font-family="Arial,sans-serif" font-size="13">e-</text><circle cx="262.5" cy="207.3" r="12" fill="#183b56"/><text x="254.5" y="212.3" fill="#fff" font-family="Arial,sans-serif" font-size="13">e-</text><circle cx="281.8" cy="122.7" r="12" fill="#183b56"/><text x="273.8" y="127.7" fill="#fff" font-family="Arial,sans-serif" font-size="13">e-</text></svg>