<svg xmlns="http://www.w3.org/2000/svg" viewBox="95 25 330 315" width="560" height="360" role="img" aria-label="Atom diagram showing protons, neutrons, electrons and shells"><defs><radialGradient id="nucleus" cx="35%" cy="30%"><stop offset="0" stop-color="#fff7ed"/><stop offset="0.7" stop-color="#fed7aa"/><stop offset="1" stop-color="#fb923c"/></radialGradient></defs><rect width="560" height="360" fill="#f8fbfd"/><rect x="20" y="20" width="520" height="320" rx="16" fill="#ffffff" stroke="#d6e2ea" stroke-width="2"/><circle cx="260" cy="180" r="58" fill="none" stroke="#0f766e" stroke-width="4"/><text x="219.4" y="221.8" text-anchor="middle" fill="#0f766e" font-family="Arial,sans-serif" font-size="16" font-weight="700">K</text><circle cx="260" cy="180" r="100" fill="none" stroke="#2563a8" stroke-width="4"/><text x="190.0" y="252.0" text-anchor="middle" fill="#2563a8" font-family="Arial,sans-serif" font-size="16" font-weight="700">L</text><circle cx="260" cy="180" r="142" fill="none" stroke="#6d42c7" stroke-width="4"/><text x="160.6" y="282.2" text-anchor="middle" fill="#6d42c7" font-family="Arial,sans-serif" font-size="16" font-weight="700">M</text><circle cx="260.0" cy="122.0" r="18" fill="#183b56" stroke="#ffffff" stroke-width="2"/><text x="246" y="129" fill="#fff" font-family="Arial,sans-serif" font-size="20">e-</text><circle cx="260.0" cy="238.0" r="18" fill="#183b56" stroke="#ffffff" stroke-width="2"/><text x="246" y="245" fill="#fff" font-family="Arial,sans-serif" font-size="20">e-</text><circle cx="260.0" cy="80.0" r="18" fill="#183b56" stroke="#ffffff" stroke-width="2"/><text x="246" y="87" fill="#fff" font-family="Arial,sans-serif" font-size="20">e-</text><circle cx="330.7" cy="109.3" r="18" fill="#183b56" stroke="#ffffff" stroke-width="2"/><text x="316.7" y="116.3" fill="#fff" font-family="Arial,sans-serif" font-size="20">e-</text><circle cx="360.0" cy="180.0" r="18" fill="#183b56" stroke="#ffffff" stroke-width="2"/><text x="346" y="187" fill="#fff" font-family="Arial,sans-serif" font-size="20">e-</text><circle cx="330.7" cy="250.7" r="18" fill="#183b56" stroke="#ffffff" stroke-width="2"/><text x="316.7" y="257.7" fill="#fff" font-family="Arial,sans-serif" font-size="20">e-</text><circle cx="260.0" cy="280.0" r="18" fill="#183b56" stroke="#ffffff" stroke-width="2"/><text x="246" y="287" fill="#fff" font-family="Arial,sans-serif" font-size="20">e-</text><circle cx="189.3" cy="250.7" r="18" fill="#183b56" stroke="#ffffff" stroke-width="2"/><text x="175.3" y="257.7" fill="#fff" font-family="Arial,sans-serif" font-size="20">e-</text><circle cx="160.0" cy="180.0" r="18" fill="#183b56" stroke="#ffffff" stroke-width="2"/><text x="146" y="187" fill="#fff" font-family="Arial,sans-serif" font-size="20">e-</text><circle cx="189.3" cy="109.3" r="18" fill="#183b56" stroke="#ffffff" stroke-width="2"/><text x="175.3" y="116.3" fill="#fff" font-family="Arial,sans-serif" font-size="20">e-</text><circle cx="260.0" cy="38.0" r="18" fill="#183b56" stroke="#ffffff" stroke-width="2"/><text x="246" y="45" fill="#fff" font-family="Arial,sans-serif" font-size="20">e-</text><circle cx="260.0" cy="322.0" r="18" fill="#183b56" stroke="#ffffff" stroke-width="2"/><text x="246" y="329" fill="#fff" font-family="Arial,sans-serif" font-size="20">e-</text><circle cx="260" cy="180" r="72" fill="url(#nucleus)" stroke="#2b6cb0" stroke-width="5"/><circle cx="285.8" cy="183.1" r="17" fill="#e07819" stroke="#ffffff" stroke-width="3"/><text x="272.81302453220053" y="189.1125173895119" fill="#fff" font-family="Arial,sans-serif" font-size="15">p+</text><circle cx="276.9" cy="219.5" r="17" fill="#596b82" stroke="#ffffff" stroke-width="3"/><text x="263.88741172667966" y="225.5451049457907" fill="#fff" font-family="Arial,sans-serif" font-size="15">n0</text><circle cx="244.4" cy="200.8" r="17" fill="#e07819" stroke="#ffffff" stroke-width="3"/><text x="231.3979686048616" y="206.79847629864062" fill="#fff" font-family="Arial,sans-serif" font-size="15">p+</text><circle cx="217.3" cy="174.9" r="17" fill="#596b82" stroke="#ffffff" stroke-width="3"/><text x="204.30922865828376" y="180.85237508657647" fill="#fff" font-family="Arial,sans-serif" font-size="15">n0</text><circle cx="249.8" cy="156.1" r="17" fill="#e07819" stroke="#ffffff" stroke-width="3"/><text x="236.78900686293787" y="162.08900631184747" fill="#fff" font-family="Arial,sans-serif" font-size="15">p+</text><circle cx="285.8" cy="145.6" r="17" fill="#596b82" stroke="#ffffff" stroke-width="3"/><text x="272.8033596150366" y="151.60251996763282" fill="#fff" font-family="Arial,sans-serif" font-size="15">n0</text></svg>