<svg xmlns="http://www.w3.org/2000/svg" viewBox="95 25 330 315" width="560" height="360" role="img" aria-label="Atom diagram showing protons, neutrons, electrons and shells"><defs><radialGradient id="nucleus" cx="35%" cy="30%"><stop offset="0" stop-color="#fff7ed"/><stop offset="0.7" stop-color="#fed7aa"/><stop offset="1" stop-color="#fb923c"/></radialGradient></defs><rect width="560" height="360" fill="#f8fbfd"/><rect x="20" y="20" width="520" height="320" rx="16" fill="#ffffff" stroke="#d6e2ea" stroke-width="2"/><circle cx="260" cy="180" r="58" fill="none" stroke="#0f766e" stroke-width="4"/><text x="296.0" y="144.0" text-anchor="middle" fill="#0f766e" font-family="Arial,sans-serif" font-size="16" font-weight="700">K</text><circle cx="260" cy="180" r="100" fill="none" stroke="#2563a8" stroke-width="4"/><text x="322.0" y="118.0" text-anchor="middle" fill="#2563a8" font-family="Arial,sans-serif" font-size="16" font-weight="700">L</text><circle cx="260" cy="180" r="142" fill="none" stroke="#6d42c7" stroke-width="4"/><text x="348.0" y="92.0" text-anchor="middle" fill="#6d42c7" font-family="Arial,sans-serif" font-size="16" font-weight="700">M</text><circle cx="260.0" cy="122.0" r="18" fill="#183b56" stroke="#ffffff" stroke-width="2"/><text x="246" y="129" fill="#fff" font-family="Arial,sans-serif" font-size="20">e-</text><circle cx="260.0" cy="238.0" r="18" fill="#183b56" stroke="#ffffff" stroke-width="2"/><text x="246" y="245" fill="#fff" font-family="Arial,sans-serif" font-size="20">e-</text><circle cx="260.0" cy="80.0" r="18" fill="#183b56" stroke="#ffffff" stroke-width="2"/><text x="246" y="87" fill="#fff" font-family="Arial,sans-serif" font-size="20">e-</text><circle cx="330.7" cy="109.3" r="18" fill="#183b56" stroke="#ffffff" stroke-width="2"/><text x="316.7" y="116.3" fill="#fff" font-family="Arial,sans-serif" font-size="20">e-</text><circle cx="360.0" cy="180.0" r="18" fill="#183b56" stroke="#ffffff" stroke-width="2"/><text x="346" y="187" fill="#fff" font-family="Arial,sans-serif" font-size="20">e-</text><circle cx="330.7" cy="250.7" r="18" fill="#183b56" stroke="#ffffff" stroke-width="2"/><text x="316.7" y="257.7" fill="#fff" font-family="Arial,sans-serif" font-size="20">e-</text><circle cx="260.0" cy="280.0" r="18" fill="#183b56" stroke="#ffffff" stroke-width="2"/><text x="246" y="287" fill="#fff" font-family="Arial,sans-serif" font-size="20">e-</text><circle cx="189.3" cy="250.7" r="18" fill="#183b56" stroke="#ffffff" stroke-width="2"/><text x="175.3" y="257.7" fill="#fff" font-family="Arial,sans-serif" font-size="20">e-</text><circle cx="160.0" cy="180.0" r="18" fill="#183b56" stroke="#ffffff" stroke-width="2"/><text x="146" y="187" fill="#fff" font-family="Arial,sans-serif" font-size="20">e-</text><circle cx="189.3" cy="109.3" r="18" fill="#183b56" stroke="#ffffff" stroke-width="2"/><text x="175.3" y="116.3" fill="#fff" font-family="Arial,sans-serif" font-size="20">e-</text><circle cx="260.0" cy="38.0" r="18" fill="#183b56" stroke="#ffffff" stroke-width="2"/><text x="246" y="45" fill="#fff" font-family="Arial,sans-serif" font-size="20">e-</text><circle cx="260.0" cy="322.0" r="18" fill="#183b56" stroke="#ffffff" stroke-width="2"/><text x="246" y="329" fill="#fff" font-family="Arial,sans-serif" font-size="20">e-</text><circle cx="260" cy="180" r="72" fill="url(#nucleus)" stroke="#2b6cb0" stroke-width="5"/><circle cx="270.0" cy="180.0" r="14" fill="#d97706" stroke="#ffffff" stroke-width="2"/><text x="260" y="185" fill="#fff" font-family="Arial,sans-serif" font-size="12">p+</text><circle cx="243.8" cy="194.9" r="14" fill="#64748b" stroke="#ffffff" stroke-width="2"/><text x="233.77793267866946" y="199.86083886670667" fill="#fff" font-family="Arial,sans-serif" font-size="12">n0</text><circle cx="263.0" cy="146.1" r="14" fill="#d97706" stroke="#ffffff" stroke-width="2"/><text x="252.97225585968818" y="151.13016541072943" fill="#fff" font-family="Arial,sans-serif" font-size="12">p+</text><circle cx="266.1" cy="187.9" r="14" fill="#64748b" stroke="#ffffff" stroke-width="2"/><text x="256.0844655029556" y="192.93594855977176" fill="#fff" font-family="Arial,sans-serif" font-size="12">n0</text><circle cx="238.3" cy="176.2" r="14" fill="#d97706" stroke="#ffffff" stroke-width="2"/><text x="228.33625381955002" y="181.16827696342247" fill="#fff" font-family="Arial,sans-serif" font-size="12">p+</text><circle cx="288.7" cy="161.8" r="14" fill="#64748b" stroke="#ffffff" stroke-width="2"/><text x="278.687385327266" y="166.7507829459737" fill="#fff" font-family="Arial,sans-serif" font-size="12">n0</text><circle cx="257.4" cy="189.7" r="14" fill="#d97706" stroke="#ffffff" stroke-width="2"/><text x="247.40414409133132" y="194.65720104903227" fill="#fff" font-family="Arial,sans-serif" font-size="12">p+</text></svg>