<svg xmlns="http://www.w3.org/2000/svg" viewBox="140 30 440 350" width="720" height="400" role="img" aria-label="Atom structure with labelled nucleus, shells, electrons and electron configuration"><defs><radialGradient id="nucleus" cx="35%" cy="30%"><stop offset="0" stop-color="#f59e0b"/><stop offset="1" stop-color="#b45309"/></radialGradient><linearGradient id="shell" x1="0" x2="1"><stop offset="0" stop-color="#2b6cb0"/><stop offset="1" stop-color="#6f9fba"/></linearGradient></defs><rect width="720" height="400" fill="#f8fbfd"/><text x="190" y="58" fill="#2b6cb0" font-family="Arial,sans-serif" font-size="28">Oxygen</text><circle cx="360" cy="190" r="58" fill="none" stroke="url(#shell)" stroke-width="3"/><circle cx="360" cy="190" r="100" fill="none" stroke="url(#shell)" stroke-width="3"/><circle cx="360" cy="190" r="142" fill="none" stroke="url(#shell)" stroke-width="3"/><circle cx="360" cy="190" r="45" fill="url(#nucleus)" stroke="#92400e" stroke-width="3"/><text x="330" y="183" fill="#fff" font-family="Arial,sans-serif" font-size="17">p+ 8</text><text x="330" y="205" fill="#fff" font-family="Arial,sans-serif" font-size="17">n0 9</text><circle cx="360.0" cy="127.0" r="12" fill="#183b56"/><text x="352" y="132" fill="#fff" font-family="Arial,sans-serif" font-size="13">e-</text><circle cx="360.0" cy="243.0" r="12" fill="#183b56"/><text x="352" y="248" fill="#fff" font-family="Arial,sans-serif" font-size="13">e-</text><circle cx="360.0" cy="85.0" r="12" fill="#183b56"/><text x="352" y="90" fill="#fff" font-family="Arial,sans-serif" font-size="13">e-</text><circle cx="446.6" cy="135.0" r="12" fill="#183b56"/><text x="438.6" y="140" fill="#fff" font-family="Arial,sans-serif" font-size="13">e-</text><circle cx="446.6" cy="235.0" r="12" fill="#183b56"/><text x="438.6" y="240" fill="#fff" font-family="Arial,sans-serif" font-size="13">e-</text><circle cx="360.0" cy="285.0" r="12" fill="#183b56"/><text x="352" y="290" fill="#fff" font-family="Arial,sans-serif" font-size="13">e-</text><circle cx="273.4" cy="235.0" r="12" fill="#183b56"/><text x="265.4" y="240" fill="#fff" font-family="Arial,sans-serif" font-size="13">e-</text><circle cx="273.4" cy="135.0" r="12" fill="#183b56"/><text x="265.4" y="140" fill="#fff" font-family="Arial,sans-serif" font-size="13">e-</text><text x="190" y="350" fill="#183b56" font-family="Arial,sans-serif" font-size="17">Electron configuration: 2 | 6 | 0</text><text x="190" y="378" fill="#52667a" font-family="Arial,sans-serif" font-size="17">Atomic number 8 | Isotope 17</text></svg>