<svg xmlns="http://www.w3.org/2000/svg" viewBox="35 20 590 320" width="640" height="400" role="img" aria-label="Bohr atom diagram with proton, neutron and electron key"><defs><radialGradient id="proton" cx="32%" cy="28%"><stop offset="0" stop-color="#fff7ed"/><stop offset="0.38" stop-color="#fb7185"/><stop offset="1" stop-color="#c2414d"/></radialGradient><radialGradient id="neutron" cx="32%" cy="28%"><stop offset="0" stop-color="#f8fafc"/><stop offset="0.38" stop-color="#b8c9dc"/><stop offset="1" stop-color="#5d7fa5"/></radialGradient><filter id="shadow" x="-40%" y="-40%" width="180%" height="180%"><feDropShadow dx="0" dy="5" stdDeviation="5" flood-color="#183b56" flood-opacity="0.2"/></filter></defs><rect width="640" height="400" fill="#ffffff"/><ellipse cx="260" cy="180" rx="83.1" ry="39.7" fill="none" stroke="#58738d" stroke-width="3"/><ellipse cx="260" cy="180" rx="144.7" ry="69.1" fill="none" stroke="#58738d" stroke-width="3"/><ellipse cx="260" cy="180" rx="206.4" ry="98.6" fill="none" stroke="#58738d" stroke-width="3"/><circle cx="260.0" cy="140.3" r="15" fill="#fbbf24" stroke="#172b43" stroke-width="3"/><circle cx="260.0" cy="219.7" r="15" fill="#fbbf24" stroke="#172b43" stroke-width="3"/><circle cx="260.0" cy="110.9" r="15" fill="#fbbf24" stroke="#172b43" stroke-width="3"/><circle cx="362.3" cy="131.1" r="15" fill="#fbbf24" stroke="#172b43" stroke-width="3"/><circle cx="404.7" cy="180.0" r="15" fill="#fbbf24" stroke="#172b43" stroke-width="3"/><circle cx="362.3" cy="228.9" r="15" fill="#fbbf24" stroke="#172b43" stroke-width="3"/><circle cx="260.0" cy="249.1" r="15" fill="#fbbf24" stroke="#172b43" stroke-width="3"/><circle cx="157.7" cy="228.9" r="15" fill="#fbbf24" stroke="#172b43" stroke-width="3"/><circle cx="115.3" cy="180.0" r="15" fill="#fbbf24" stroke="#172b43" stroke-width="3"/><circle cx="157.7" cy="131.1" r="15" fill="#fbbf24" stroke="#172b43" stroke-width="3"/><circle cx="260.0" cy="81.4" r="15" fill="#fbbf24" stroke="#172b43" stroke-width="3"/><circle cx="438.7" cy="130.7" r="15" fill="#fbbf24" stroke="#172b43" stroke-width="3"/><circle cx="438.7" cy="229.3" r="15" fill="#fbbf24" stroke="#172b43" stroke-width="3"/><circle cx="260.0" cy="278.6" r="15" fill="#fbbf24" stroke="#172b43" stroke-width="3"/><circle cx="81.3" cy="229.3" r="15" fill="#fbbf24" stroke="#172b43" stroke-width="3"/><circle cx="81.3" cy="130.7" r="15" fill="#fbbf24" stroke="#172b43" stroke-width="3"/><circle cx="260" cy="180" r="78" fill="#f4f8fc" stroke="#345979" stroke-width="3" filter="url(#shadow)"/><circle cx="283.0" cy="180.0" r="20" fill="url(#proton)" stroke="#17324d" stroke-width="2"/><text x="273" y="188" fill="#17324d" font-family="Arial,sans-serif" font-size="22">+</text><circle cx="283.5" cy="220.7" r="20" fill="url(#neutron)" stroke="#17324d" stroke-width="2"/><circle cx="248.5" cy="199.9" r="20" fill="url(#proton)" stroke="#17324d" stroke-width="2"/><text x="238.5" y="207.91858428704208" fill="#17324d" font-family="Arial,sans-serif" font-size="22">+</text><circle cx="213.0" cy="180.0" r="20" fill="url(#neutron)" stroke="#17324d" stroke-width="2"/><circle cx="248.5" cy="160.1" r="20" fill="url(#proton)" stroke="#17324d" stroke-width="2"/><text x="238.5" y="168.08141571295792" fill="#17324d" font-family="Arial,sans-serif" font-size="22">+</text><circle cx="283.5" cy="139.3" r="20" fill="url(#neutron)" stroke="#17324d" stroke-width="2"/><circle cx="283.0" cy="180.0" r="20" fill="url(#proton)" stroke="#17324d" stroke-width="2"/><text x="273" y="188" fill="#17324d" font-family="Arial,sans-serif" font-size="22">+</text><circle cx="283.5" cy="220.7" r="20" fill="url(#neutron)" stroke="#17324d" stroke-width="2"/><rect x="480" y="72" width="130" height="215" rx="10" fill="#f8fafc" stroke="#d8e2eb" stroke-width="2"/><text x="498" y="101" fill="#172b43" font-family="Arial,sans-serif" font-size="20">Key:</text><text x="498" y="138" fill="#17324d" font-family="Arial,sans-serif" font-size="24">+</text><text x="526" y="138" fill="#172b43" font-family="Arial,sans-serif" font-size="17">Proton</text><text x="498" y="183" fill="#587ca4" font-family="Arial,sans-serif" font-size="23">●</text><text x="526" y="183" fill="#172b43" font-family="Arial,sans-serif" font-size="17">Neutron</text><text x="498" y="228" fill="#f59e0b" font-family="Arial,sans-serif" font-size="23">●</text><text x="526" y="228" fill="#172b43" font-family="Arial,sans-serif" font-size="17">Electron</text></svg>